<?xml version="1.0" encoding="UTF-8" standalone="no"?>
<!-- Created with Inkscape (http://www.inkscape.org/) -->

<svg
   xmlns:dc="http://purl.org/dc/elements/1.1/"
   xmlns:cc="http://creativecommons.org/ns#"
   xmlns:rdf="http://www.w3.org/1999/02/22-rdf-syntax-ns#"
   xmlns:svg="http://www.w3.org/2000/svg"
   xmlns="http://www.w3.org/2000/svg"
   xmlns:sodipodi="http://sodipodi.sourceforge.net/DTD/sodipodi-0.dtd"
   xmlns:inkscape="http://www.inkscape.org/namespaces/inkscape"
   width="15.875mm"
   height="15.839882mm"
   viewBox="0 0 15.875 15.839882"
   version="1.1"
   id="svg8"
   inkscape:version="0.92.1 r15371"
   sodipodi:docname="features-3.svg">
  <defs
     id="defs2" />
  <sodipodi:namedview
     id="base"
     pagecolor="#ffffff"
     bordercolor="#666666"
     borderopacity="1.0"
     inkscape:pageopacity="0.0"
     inkscape:pageshadow="2"
     inkscape:zoom="1.4"
     inkscape:cx="120.26215"
     inkscape:cy="55.230794"
     inkscape:document-units="mm"
     inkscape:current-layer="layer1"
     showgrid="false"
     fit-margin-top="0"
     fit-margin-left="0"
     fit-margin-right="0"
     fit-margin-bottom="0"
     inkscape:window-width="1920"
     inkscape:window-height="1016"
     inkscape:window-x="0"
     inkscape:window-y="27"
     inkscape:window-maximized="1" />
  <metadata
     id="metadata5">
    <rdf:RDF>
      <cc:Work
         rdf:about="">
        <dc:format>image/svg+xml</dc:format>
        <dc:type
           rdf:resource="http://purl.org/dc/dcmitype/StillImage" />
        <dc:title></dc:title>
      </cc:Work>
    </rdf:RDF>
  </metadata>
  <g
     inkscape:label="Layer 1"
     inkscape:groupmode="layer"
     id="layer1"
     transform="translate(-47.827414,-99.424389)">
    <path
       style="fill:#000000;stroke-width:0.26458332"
       d="m 47.827414,114.72456 c 0,-0.94467 0.993794,-2.54501 1.771992,-2.85351 0.407852,-0.16168 1.336862,-0.43442 2.064466,-0.60608 0.727604,-0.17166 1.355675,-0.33722 1.395712,-0.36792 0.139729,-0.10712 -0.957255,-2.45502 -1.224084,-2.61993 -0.147973,-0.0914 -0.255159,-1.0273 -0.238193,-2.07967 0.0218,-1.35215 -0.103727,-2.1695 -0.427946,-2.78651 -0.256606,-0.48834 -0.385644,-1.1036 -0.292805,-1.39611 0.210981,-0.66474 1.26866,-1.36642 1.89877,-1.25968 0.265904,0.0451 0.746655,-0.18128 1.068336,-0.50297 1.103727,-1.103722 2.738777,-1.103722 3.842504,0 0.321681,0.32169 0.802432,0.54802 1.068336,0.50297 0.63011,-0.10674 1.687789,0.59494 1.89877,1.25968 0.09187,0.28946 -0.03385,0.90944 -0.281562,1.38846 -0.265969,0.51433 -0.464993,1.56634 -0.490538,2.59291 -0.03173,1.27499 -0.235009,2.13237 -0.776129,3.27347 -0.403228,0.85031 -0.694637,1.57689 -0.647573,1.61461 0.04706,0.0377 0.680881,0.20903 1.408486,0.38069 0.727604,0.17166 1.656614,0.4444 2.064466,0.60608 0.778198,0.3085 1.771992,1.90884 1.771992,2.85351 0,0.53123 -0.124716,0.53971 -7.9375,0.53971 -7.812784,0 -7.9375,-0.008 -7.9375,-0.53971 z m 7.9375,-1.15648 c 0,-1.11233 -0.05303,-1.1927 -1.131523,-1.71479 -0.904334,-0.43778 -1.31604,-0.49904 -2.05052,-0.30512 -0.50545,0.13345 -1.412039,0.37042 -2.014643,0.52659 -1.082588,0.28057 -1.686178,0.88591 -2.05905,2.06503 l -0.188257,0.59531 h 3.721997 3.721996 z m 7.255736,0.57171 c -0.372682,-1.17851 -0.976684,-1.78453 -2.05905,-2.0659 -0.602604,-0.15666 -1.530119,-0.39723 -2.061143,-0.53461 -0.766765,-0.19837 -1.134029,-0.15386 -1.784265,0.21624 -0.734471,0.41806 -0.818938,0.59543 -0.820438,1.72281 l -0.0017,1.25677 h 3.457413 3.457413 z m -5.545151,-3.40085 c 0.514387,-0.45164 0.935248,-0.95942 0.935248,-1.1284 0,-0.16898 0.238125,-0.75153 0.529167,-1.29455 0.679964,-1.26866 0.666793,-1.68679 -0.06615,-2.09987 -0.796976,-0.44918 -5.420732,-0.44918 -6.217708,0 -0.684675,0.38588 -0.793131,1.4042 -0.2115,1.98583 0.211096,0.21109 0.461807,0.69456 0.557133,1.07438 0.247353,0.98553 1.818144,2.28377 2.763221,2.28377 0.489952,0 1.119582,-0.30225 1.710585,-0.82116 z m -3.55467,-1.31045 c 0.421365,-0.78733 1.064907,-0.94951 1.485471,-0.37435 0.349173,0.47752 0.368055,0.47752 0.717228,0 0.420564,-0.57516 1.064106,-0.41298 1.485471,0.37435 0.282685,0.5282 0.228762,0.54411 -1.844085,0.54411 -2.072847,0 -2.12677,-0.0159 -1.844085,-0.54411 z M 53.5011,107.35601 c -0.05668,-0.0567 -0.03973,-0.20551 0.03766,-0.33073 0.221836,-0.35894 1.696983,-0.26936 1.696983,0.10305 0,0.29825 -1.471002,0.49132 -1.734647,0.22768 z m 2.792961,-0.24445 c 1.3e-5,-0.23265 0.284185,-0.32009 0.859915,-0.26458 1.018564,0.0982 0.915226,0.55939 -0.13231,0.59048 -0.435404,0.0129 -0.727616,-0.11796 -0.727605,-0.3259 z m -1.190163,-1.83117 c 1.018889,-0.0723 2.323302,-10e-4 2.898695,0.15741 1.213751,0.33514 1.456062,0.13301 1.462436,-1.21989 0.0022,-0.47294 0.110376,-0.85989 0.240327,-0.85989 0.46676,0 0.561455,-0.88056 0.160503,-1.49249 -0.511062,-0.77998 -1.455112,-0.84162 -1.455112,-0.095 0,0.85895 -0.418226,0.60724 -0.860098,-0.51765 -0.720429,-1.834035 -2.851041,-1.834035 -3.57147,0 -0.441872,1.12489 -0.860098,1.3766 -0.860098,0.51765 0,-0.74661 -0.94405,-0.68497 -1.455112,0.095 -0.400952,0.61193 -0.306257,1.49249 0.160503,1.49249 0.129951,0 0.236275,0.34745 0.236275,0.77211 0,1.16014 0.264827,1.66793 0.761747,1.46062 0.235883,-0.0984 1.262515,-0.23807 2.281404,-0.31036 z"
       id="path21"
       inkscape:connector-curvature="0" />
  </g>
</svg>
