<?xml version="1.0" encoding="UTF-8" standalone="no"?>
<!-- Created with Inkscape (http://www.inkscape.org/) -->

<svg
   xmlns:dc="http://purl.org/dc/elements/1.1/"
   xmlns:cc="http://creativecommons.org/ns#"
   xmlns:rdf="http://www.w3.org/1999/02/22-rdf-syntax-ns#"
   xmlns:svg="http://www.w3.org/2000/svg"
   xmlns="http://www.w3.org/2000/svg"
   xmlns:sodipodi="http://sodipodi.sourceforge.net/DTD/sodipodi-0.dtd"
   xmlns:inkscape="http://www.inkscape.org/namespaces/inkscape"
   width="15.870999mm"
   height="15.829914mm"
   viewBox="0 0 15.870999 15.829914"
   version="1.1"
   id="svg8"
   inkscape:version="0.92.1 r15371"
   sodipodi:docname="features-1.svg">
  <defs
     id="defs2" />
  <sodipodi:namedview
     id="base"
     pagecolor="#ffffff"
     bordercolor="#666666"
     borderopacity="1.0"
     inkscape:pageopacity="0.0"
     inkscape:pageshadow="2"
     inkscape:zoom="3.959798"
     inkscape:cx="20.210987"
     inkscape:cy="24.740468"
     inkscape:document-units="mm"
     inkscape:current-layer="layer1"
     showgrid="false"
     fit-margin-top="0"
     fit-margin-left="0"
     fit-margin-right="0"
     fit-margin-bottom="0"
     inkscape:window-width="1920"
     inkscape:window-height="1016"
     inkscape:window-x="0"
     inkscape:window-y="27"
     inkscape:window-maximized="1" />
  <metadata
     id="metadata5">
    <rdf:RDF>
      <cc:Work
         rdf:about="">
        <dc:format>image/svg+xml</dc:format>
        <dc:type
           rdf:resource="http://purl.org/dc/dcmitype/StillImage" />
        <dc:title></dc:title>
      </cc:Work>
    </rdf:RDF>
  </metadata>
  <g
     inkscape:label="Layer 1"
     inkscape:groupmode="layer"
     id="layer1"
     transform="translate(-42.966191,-49.737947)">
    <path
       style="fill:#f69679;stroke-width:0.26458332"
       d="m 44.816278,65.038694 c -0.291041,-0.291041 -0.529166,-0.763102 -0.529166,-1.049024 0,-0.285922 -0.236719,-0.646546 -0.526043,-0.801387 -0.660344,-0.353406 -0.931652,-1.372125 -0.553572,-2.078575 0.210452,-0.393232 0.205059,-0.721381 -0.01997,-1.215269 -0.2298,-0.504356 -0.23265,-0.842546 -0.0112,-1.328588 0.186294,-0.40887 0.202131,-0.710689 0.04247,-0.809365 -0.458362,-0.283283 -0.267319,-1.136051 0.366132,-1.634324 0.341406,-0.26855 0.700485,-0.90227 0.797954,-1.408266 0.467341,-2.426155 2.377401,-4.265572 4.997454,-4.812623 3.782638,-0.789794 7.375217,1.360627 8.040162,4.812623 0.09747,0.505996 0.456548,1.139716 0.797954,1.408266 0.633451,0.498273 0.824494,1.351041 0.366132,1.634324 -0.159661,0.09868 -0.143824,0.400495 0.04247,0.809365 0.221455,0.486042 0.218605,0.824232 -0.0112,1.328588 -0.22503,0.493888 -0.230423,0.822037 -0.01997,1.215269 0.378081,0.70645 0.106773,1.725169 -0.553571,2.078575 -0.289324,0.154841 -0.526044,0.515465 -0.526044,0.801387 0,0.285922 -0.238125,0.757983 -0.529166,1.049024 -0.495569,0.495569 -0.881945,0.529167 -6.085417,0.529167 -5.203472,0 -5.589848,-0.0336 -6.085417,-0.529167 z m 11.853334,-0.3175 c 0.174625,-0.174625 0.3175,-0.531812 0.3175,-0.79375 0,-0.444806 -0.401775,-0.47625 -6.085417,-0.47625 -5.683642,0 -6.085417,0.03144 -6.085417,0.47625 0,1.030423 0.442624,1.11125 6.085417,1.11125 3.886435,0 5.541522,-0.0911 5.767917,-0.3175 z M 52.80345,61.859973 50.868747,60.805361 h -3.370193 c -3.434205,0 -4.005192,0.150878 -4.005192,1.058333 0,0.968851 0.504507,1.058425 5.939895,1.054612 l 5.304896,-0.0037 -1.934703,-1.054612 z m 5.231446,0.67789 c 0.410937,-0.495148 0.267803,-1.200214 -0.318624,-1.569517 -0.382346,-0.240782 -0.653858,-0.09821 -1.583609,0.831537 l -1.122144,1.122145 h 1.352774 c 0.859796,0 1.468963,-0.139998 1.671603,-0.384165 z m -2.502993,-0.938752 0.760461,-0.79375 -2.100022,0.0022 -2.100022,0.0022 1.322917,0.77826 c 0.727604,0.428044 1.330406,0.784259 1.339561,0.791591 0.0092,0.0073 0.358852,-0.343878 0.777105,-0.78044 z m 2.6158,-1.918229 c 0.686314,-1.088613 -1.082678,-1.976576 -2.274569,-1.141742 -0.754298,0.528331 -1.77975,0.528678 -2.533317,8.73e-4 -0.500353,-0.350461 -0.730489,-0.36249 -1.514079,-0.07914 -0.744262,0.269129 -1.103824,0.269129 -1.848086,0 -0.78359,-0.28335 -1.013726,-0.271321 -1.514079,0.07914 -0.747812,0.523774 -1.896558,0.531881 -2.324378,0.01639 -0.394162,-0.474937 -1.882048,-0.52566 -2.328333,-0.07937 -0.174625,0.174625 -0.3175,0.508 -0.3175,0.740833 0,1.013297 0.4208,1.069183 7.502996,0.996469 6.1993,-0.06365 6.887527,-0.114987 7.151345,-0.533448 z m -9.74151,-1.912216 c 0.652934,-0.652934 0.65745,-0.653441 1.178599,-0.132292 0.671551,0.671552 1.962255,0.671552 2.633806,0 0.521149,-0.521149 0.525665,-0.520642 1.178599,0.132292 0.783328,0.783328 1.463123,0.83042 2.292526,0.158811 0.449243,-0.363776 0.88177,-0.460627 1.616811,-0.362038 0.793808,0.106472 1.003494,0.04752 1.003494,-0.282113 0,-0.22919 -0.264617,-0.602054 -0.588038,-0.828587 -0.492007,-0.344615 -1.610641,-0.411878 -6.849855,-0.411878 -5.683685,0 -6.317266,0.0449 -6.862393,0.486317 -0.849249,0.687681 -0.449248,1.197342 0.807431,1.028786 0.755451,-0.101328 1.092158,-0.01429 1.418317,0.366638 0.585635,0.683973 1.388467,0.6263 2.170703,-0.155936 z m 8.580919,-2.660345 c 0,-0.663398 -0.776566,-2.320031 -1.401691,-2.990202 -1.146592,-1.229215 -2.543312,-1.751535 -4.683726,-1.751535 -2.888332,0 -4.728125,1.087908 -5.675914,3.356286 -0.787368,1.884436 -1.084065,1.790824 5.675914,1.790824 5.289569,0 6.085417,-0.05301 6.085417,-0.405373 z m -9.789584,-2.505043 c 0,-0.145521 0.119063,-0.264584 0.264584,-0.264584 0.14552,0 0.264583,0.119063 0.264583,0.264584 0,0.14552 -0.119063,0.264583 -0.264583,0.264583 -0.145521,0 -0.264584,-0.119063 -0.264584,-0.264583 z m 3.704167,0 c 0,-0.145521 0.119063,-0.264584 0.264583,-0.264584 0.145521,0 0.264584,0.119063 0.264584,0.264584 0,0.14552 -0.119063,0.264583 -0.264584,0.264583 -0.14552,0 -0.264583,-0.119063 -0.264583,-0.264583 z m 3.175,0 c 0,-0.145521 0.119062,-0.264584 0.264583,-0.264584 0.145521,0 0.264584,0.119063 0.264584,0.264584 0,0.14552 -0.119063,0.264583 -0.264584,0.264583 -0.145521,0 -0.264583,-0.119063 -0.264583,-0.264583 z m -5.291667,-1.058334 c 0,-0.145521 0.119063,-0.264583 0.264584,-0.264583 0.14552,0 0.264583,0.119062 0.264583,0.264583 0,0.145521 -0.119063,0.264584 -0.264583,0.264584 -0.145521,0 -0.264584,-0.119063 -0.264584,-0.264584 z m 3.704167,0 c 0,-0.145521 0.119062,-0.264583 0.264583,-0.264583 0.145521,0 0.264584,0.119062 0.264584,0.264583 0,0.145521 -0.119063,0.264584 -0.264584,0.264584 -0.145521,0 -0.264583,-0.119063 -0.264583,-0.264584 z"
       id="path31"
       inkscape:connector-curvature="0" />
  </g>
</svg>
